<svg id="Layer_1" enable-background="new 0 0 512 512" height="512" viewBox="0 0 512 512" width="512" xmlns="http://www.w3.org/2000/svg"><g><path d="m437.02 74.98c-48.353-48.351-112.64-74.98-181.02-74.98s-132.667 26.629-181.02 74.98c-48.351 48.353-74.98 112.64-74.98 181.02s26.629 132.667 74.98 181.02c48.353 48.351 112.64 74.98 181.02 74.98s132.667-26.629 181.02-74.98c48.351-48.353 74.98-112.64 74.98-181.02s-26.629-132.667-74.98-181.02zm-181.02 407.02c-124.617 0-226-101.383-226-226s101.383-226 226-226 226 101.383 226 226-101.383 226-226 226z"/><path d="m440.872 320.349c7.039-20.164 10.878-41.815 10.878-64.349 0-61.275-28.308-116.055-72.524-151.975-.494-.493-2.241-1.859-2.577-2.072-33.27-26.113-75.172-41.703-120.649-41.703-45.471 0-87.37 15.586-120.637 41.694-.341.215-2.104 1.593-2.6 2.089-44.21 35.921-72.513 90.697-72.513 151.967 0 22.553 3.846 44.221 10.896 64.4.04.139.43 1.308.613 1.738 27.182 75.488 99.505 129.612 184.241 129.612 84.722 0 157.036-54.106 184.227-129.576.19-.442.6-1.669.645-1.825zm-19.122-64.349c0 12.259-1.35 24.208-3.887 35.715l-76.268-54.32 33.69-96.355c28.753 29.824 46.465 70.36 46.465 114.96zm-165.75 135.303-20.998-60.053h41.996zm-31.488-90.053-18.353-52.488 49.841-35.498 49.839 35.497-18.353 52.489zm-51.408-147.028 57.041 40.626-34.295 24.426zm19.627 147.028h-60.266l48.25-34.365zm89.125-106.402 57.039-40.625-22.745 65.05zm49.428 72.035 48.253 34.367h-60.27zm11.334-152.143-86.618 61.692-86.619-61.692c25.223-15.523 54.892-24.49 86.619-24.49s61.396 8.967 86.618 24.49zm-205.904 26.302 33.691 96.355-76.267 54.321c-2.538-11.509-3.888-23.458-3.888-35.718 0-44.599 17.712-85.135 46.464-114.958zm-28.375 190.208h94.882l31.15 89.089c-55.055-7.206-101.698-41.532-126.032-89.089zm169.29 89.089 31.15-89.089h94.883c-24.335 47.557-70.978 81.882-126.033 89.089z"/></g></svg>