<svg id="Layer_1" enable-background="new 0 0 512 512" height="512" viewBox="0 0 512 512" width="512" xmlns="http://www.w3.org/2000/svg"><g><g><path d="m384 384c0 70.692-57.308 128-128 128-141.384 0-256-114.616-256-256 0-140.28 112.837-254.187 252.696-255.958 79.292 18.328 131.304 313.266 131.304 383.958z" fill="#f5fafc"/></g><path d="m384 384c0-69.705-50.57-357.432-128-383.022v511.022c70.692 0 128-57.308 128-128z" fill="#e1f1fa"/><g><path d="m256 430.998c-25.915 0-46.998-21.083-46.998-46.998s21.083-46.998 46.998-46.998 46.998 21.083 46.998 46.998-21.083 46.998-46.998 46.998z" fill="#23272b"/></g><path d="m302.998 384c0-25.914-21.083-46.998-46.998-46.998v93.995c25.915.001 46.998-21.083 46.998-46.997z" fill="#0b0c0d"/><g><path d="m259.304 511.958c69.165-1.752 124.696-58.37 124.696-127.958 0-70.692-57.308-128-128-128s-128-57.308-128-128 57.308-128 128-128c141.384 0 256 114.616 256 256 0 140.28-112.837 254.187-252.696 255.958z" fill="#23272b"/></g><path d="m384 384c0 69.588-55.531 126.206-124.696 127.958 139.859-1.771 252.696-115.679 252.696-255.958 0-141.384-114.616-256-256-256v256c70.692 0 128 57.308 128 128z" fill="#0b0c0d"/><g><path d="m256 174.998c-25.915 0-46.998-21.083-46.998-46.998s21.083-46.998 46.998-46.998 46.998 21.083 46.998 46.998-21.083 46.998-46.998 46.998z" fill="#f5fafc"/></g><path d="m302.998 128c0-25.914-21.083-46.998-46.998-46.998v93.995c25.915.001 46.998-21.082 46.998-46.997z" fill="#e1f1fa"/></g></svg>