<svg id="Capa_1" enable-background="new 0 0 511.996 511.996" height="512" viewBox="0 0 511.996 511.996" width="512" xmlns="http://www.w3.org/2000/svg"><g><g><g fill="#eab14d"><path d="m73.368 291.246c0-20.851 16.903-37.754 37.754-37.754s37.754 16.903 37.754 37.754-16.903 72.867-37.754 72.867-37.754-52.015-37.754-72.867z"/><path d="m363.119 291.246c0-20.851 16.903-37.754 37.754-37.754s37.754 16.903 37.754 37.754-16.903 72.867-37.754 72.867c-20.851.001-37.754-52.015-37.754-72.867z"/></g><path d="m304.67 106.67c18.442 0 33.393-14.95 33.393-33.393 0-18.442-14.95-33.392-33.393-33.392-5.557 0-10.793 1.365-15.402 3.767.075-.912.123-1.832.123-2.763 0-18.442-14.95-33.393-33.392-33.393s-33.393 14.95-33.393 33.393c0 .931.048 1.851.123 2.763-4.61-2.402-9.845-3.767-15.402-3.767-18.442 0-33.393 14.95-33.393 33.392s14.95 33.393 33.393 33.393" fill="#dd542e"/><path d="m401.827 504.496h-291.665c.218-8.335.544-7.6.97-15.935 2.14-41.801 35.589-75.068 77.408-77.045 44.966-2.122 89.942-2.122 134.917 0 41.81 1.977 75.258 35.244 77.399 77.045.427 8.334.753 7.6.971 15.935z" fill="#e27d47"/><path d="m255.999 409.919c-13.904 0-27.807.535-41.711 1.596-25.866 1.977-46.544 35.244-47.869 77.045-.263 8.335-.472 7.6-.599 15.935h-55.659c.218-8.335.544-7.6.97-15.935 2.14-41.801 35.589-75.068 77.408-77.045 22.485-1.061 44.968-1.596 67.46-1.596z" fill="#dd542e"/><path d="m255.996 83.881c74.796 0 130.41 34.981 138.536 86.396 7.165 57.419 9.278 114.847 6.331 172.265-2.14 41.801-35.598 75.077-77.399 77.045-22.492 1.061-44.985 1.596-67.468 1.596s-44.975-.535-67.468-1.596c-41.801-1.968-75.258-35.244-77.399-77.045-2.948-57.419-.834-114.847 6.33-172.265 8.127-51.415 63.741-86.396 138.537-86.396z" fill="#f6e266"/><path d="m216.045 420.621c-9.169-.254-18.348-.599-27.517-1.034-41.801-1.968-75.258-35.244-77.399-77.045-2.948-57.419-.834-114.847 6.33-172.265 7.537-47.678 55.904-81.226 122.547-85.842-35.534 7.5-60.911 40.096-65.064 85.307-4.19 57.791-5.424 115.59-3.7 173.381 1.243 41.801 20.57 75.113 44.803 77.498z" fill="#eab14d"/><path d="m449.546 236.969c0 17.655-14.318 31.963-31.963 31.963-5.755 0-11.161-1.519-15.827-4.176 0 0-19.734-9.672-27.087-25.209-8.143-17.196-3.617-85.958-49.768-85.958-18.994 0-44.473 14.478-68.902 14.478-16.646 0-33.792-6.724-49.029-11.011-7.114-1.998-13.818-3.467-19.873-3.467-46.152 0-41.625 68.763-49.768 85.958-7.354 15.537-27.087 25.209-27.087 25.209-4.666 2.658-10.072 4.176-15.827 4.176-17.645 0-31.963-14.308-31.963-31.963 0-15.617 11.201-28.606 26.008-31.404-8.883-5.685-14.778-15.627-14.778-26.948 0-16.276 12.18-29.695 27.907-31.704-1.489-3.697-2.328-7.744-2.328-11.98 0-17.655 14.308-31.973 31.973-31.973 5.505 0 10.681 1.389 15.207 3.847 0-17.655 14.308-31.963 31.973-31.963 9.242 0 17.565 3.927 23.39 10.192 5.765-8.433 15.447-13.978 26.438-13.978 11.89 0 22.251 6.505 27.757 16.137 5.505-9.632 15.867-16.137 27.757-16.137 10.991 0 20.673 5.545 26.438 13.978 5.825-6.265 14.148-10.192 23.39-10.192 17.665 0 31.973 14.308 31.973 31.963 4.526-2.458 9.702-3.847 15.207-3.847 17.665 0 31.973 14.318 31.973 31.973 0 4.236-.839 8.283-2.328 11.98 15.727 2.008 27.907 15.427 27.907 31.704 0 11.321-5.895 21.262-14.778 26.948 14.808 2.798 26.008 15.787 26.008 31.404z" fill="#e27d47"/><path d="m206.969 157.055c-7.114-1.998-13.818-3.467-19.873-3.467-46.152 0-41.625 68.763-49.768 85.958-7.354 15.537-27.087 25.209-27.087 25.209-4.666 2.658-10.072 4.176-15.827 4.176-17.645 0-31.963-14.308-31.963-31.963 0-15.617 11.201-28.606 26.008-31.404-8.883-5.685-14.778-15.627-14.778-26.948 0-16.276 12.18-29.695 27.907-31.704-1.489-3.697-2.328-7.744-2.328-11.98 0-17.655 14.308-31.973 31.973-31.973 5.505 0 10.681 1.389 15.207 3.847 0-17.655 14.308-31.963 31.973-31.963 9.242 0 17.565 3.927 23.39 10.192 0 0-29.485 26.448 5.166 72.02z" fill="#dd542e"/><circle cx="255.996" cy="212.851" fill="#da4a54" r="17.643"/></g><g><path d="m223.073 320.45c-3.742 1.776-5.336 6.249-3.56 9.991 6.651 14.015 20.971 23.071 36.481 23.071 15.509 0 29.829-9.056 36.48-23.071 1.776-3.742.183-8.215-3.56-9.991s-8.215-.182-9.991 3.56c-4.182 8.81-13.182 14.502-22.93 14.502s-18.749-5.692-22.929-14.502c-1.776-3.741-6.248-5.337-9.991-3.56z"/><path d="m457.048 236.966c0-14.346-7.736-27.173-19.564-34.085 5.335-6.828 8.325-15.305 8.325-24.255 0-16.9-10.767-31.626-26.115-37.148.363-2.154.545-4.339.545-6.542 0-4.746-.836-9.391-2.484-13.804-1.45-3.88-5.771-5.851-9.65-4.402-3.88 1.449-5.851 5.77-4.402 9.65 1.02 2.729 1.536 5.608 1.536 8.556 0 3.145-.602 6.233-1.787 9.179-.868 2.156-.688 4.593.489 6.598 1.177 2.004 3.216 3.35 5.522 3.644 12.169 1.547 21.346 11.981 21.346 24.27 0 8.374-4.23 16.085-11.316 20.625-2.588 1.658-3.902 4.728-3.316 7.745s2.954 5.371 5.974 5.94c11.53 2.172 19.898 12.278 19.898 24.03 0 13.493-10.977 24.47-24.47 24.47-4.249 0-8.436-1.105-12.108-3.197-.126-.072-.267-.146-.397-.21-.174-.086-17.507-8.78-23.626-21.692-1.613-3.406-2.852-11.027-4.165-19.096-4.328-26.613-11.571-71.154-52.374-71.154-10.032 0-20.903 3.347-32.413 6.891-12.116 3.731-24.645 7.589-36.498 7.589s-24.382-3.858-36.498-7.589c-11.509-3.544-22.38-6.891-32.413-6.891-40.803 0-48.046 44.542-52.374 71.154-1.313 8.069-2.552 15.69-4.164 19.094-6.12 12.914-23.453 21.608-23.616 21.688-.138.068-.274.14-.408.216-3.672 2.092-7.859 3.197-12.108 3.197-13.493 0-24.47-10.977-24.47-24.47 0-11.751 8.368-21.857 19.898-24.03 3.02-.569 5.388-2.923 5.974-5.94s-.728-6.086-3.316-7.745c-7.085-4.542-11.315-12.252-11.315-20.627 0-12.289 9.177-22.723 21.346-24.27 2.306-.293 4.346-1.639 5.522-3.644s1.357-4.442.489-6.598c-1.186-2.946-1.787-6.034-1.787-9.179 0-13.493 10.978-24.47 24.47-24.47 4.071 0 8.095 1.014 11.636 2.934 2.324 1.26 5.14 1.203 7.411-.15 2.271-1.352 3.663-3.801 3.663-6.444 0-13.493 10.978-24.47 24.47-24.47 6.767 0 13.294 2.845 17.907 7.807 1.553 1.67 3.78 2.544 6.055 2.372 2.274-.171 4.347-1.367 5.632-3.251 4.576-6.705 12.14-10.708 20.235-10.708 8.749 0 16.89 4.737 21.249 12.362 1.335 2.336 3.82 3.778 6.511 3.778s5.176-1.442 6.511-3.778c4.358-7.625 12.5-12.362 21.249-12.362 8.095 0 15.66 4.003 20.235 10.708 1.286 1.884 3.358 3.08 5.632 3.251 2.276.171 4.502-.702 6.055-2.372 4.613-4.962 11.14-7.807 17.907-7.807 13.493 0 24.47 10.977 24.47 24.47 0 2.644 1.392 5.092 3.663 6.444 2.271 1.353 5.087 1.409 7.411.15 5.292-2.869 11.73-3.665 17.595-2.206 4.02 1.002 8.089-1.447 9.089-5.466s-1.447-8.089-5.466-9.089c-6.081-1.514-12.561-1.55-18.651-.118-3.516-13.014-13.541-23.381-26.348-27.389-2.084-20.609-19.534-36.748-40.683-36.748-2.852 0-5.701.303-8.488.896-3.576-18.921-20.233-33.278-40.18-33.278s-36.604 14.357-40.182 33.279c-2.787-.593-5.636-.896-8.488-.896-21.149 0-38.599 16.139-40.683 36.748-12.808 4.008-22.832 14.374-26.348 27.389-2.961-.697-6.008-1.054-9.069-1.054-21.764 0-39.47 17.706-39.47 39.47 0 2.204.182 4.388.545 6.542-15.349 5.522-26.115 20.247-26.115 37.147 0 8.95 2.99 17.427 8.325 24.255-11.829 6.911-19.564 19.739-19.564 34.085 0 13.28 6.6 25.041 16.684 32.198-3.751 6.704-5.769 14.3-5.769 22.08 0 12.104 4.807 31.539 11.689 47.262 9.184 20.981 20.365 32.381 32.401 33.074 2.097 5.211 4.684 10.226 7.748 14.961 1.436 2.218 3.845 3.426 6.304 3.426 1.396 0 2.809-.389 4.068-1.204 3.478-2.25 4.472-6.894 2.222-10.371-6.979-10.786-11.018-23.313-11.677-36.23-1.243-24.228-1.565-48.738-.983-72.93 6.795-4.032 20.217-13.279 26.471-26.476 2.521-5.324 3.797-13.172 5.413-23.108 5.21-32.04 11.634-58.562 37.568-58.562 7.775 0 17.598 3.025 27.998 6.227 12.563 3.868 26.802 8.253 40.912 8.253s28.349-4.385 40.912-8.253c10.4-3.203 20.223-6.227 27.998-6.227 25.935 0 32.358 26.522 37.568 58.562 1.616 9.936 2.892 17.784 5.414 23.11 6.253 13.196 19.675 22.442 26.47 26.474.582 24.192.26 48.701-.983 72.93-1.949 38.072-32.156 68.136-70.263 69.932-22.411 1.056-44.992 1.592-67.117 1.592s-44.707-.535-67.113-1.591c-14.44-.688-28.221-5.509-39.855-13.941-3.355-2.432-8.044-1.683-10.474 1.671-2.431 3.354-1.683 8.043 1.67 10.474 2.629 1.906 5.349 3.658 8.148 5.253-10.171 5.783-19.133 13.54-26.4 22.958-11.066 14.342-17.406 31.517-18.334 49.668-.178 3.486-.338 5.325-.479 6.947-.198 2.271-.369 4.233-.498 9.176-.053 2.022.714 3.98 2.125 5.429 1.412 1.449 3.349 2.266 5.372 2.266h291.665c2.023 0 3.96-.817 5.372-2.266s2.178-3.407 2.125-5.429c-.129-4.943-.3-6.905-.498-9.177-.141-1.622-.301-3.46-.479-6.946-.929-18.149-7.27-35.324-18.338-49.668-7.25-9.396-16.188-17.139-26.33-22.918 17.322-9.836 30.943-25.313 38.425-44.017 12.012-.729 23.169-12.124 32.338-33.069 6.882-15.723 11.689-35.158 11.689-47.262 0-7.777-2.017-15.373-5.765-22.079 10.085-7.158 16.685-18.918 16.685-32.198zm-249.72-189.583c4.198 0 8.213.982 11.934 2.919 2.416 1.258 5.324 1.107 7.597-.394s3.553-4.116 3.345-6.832c-.066-.867-.098-1.561-.098-2.183 0-14.277 11.615-25.892 25.892-25.892s25.892 11.615 25.892 25.892c0 .622-.031 1.316-.098 2.183-.208 2.716 1.072 5.331 3.345 6.832 2.272 1.501 5.181 1.652 7.597.394 3.721-1.937 7.736-2.919 11.934-2.919 12.297 0 22.612 8.62 25.239 20.134-6.805.644-13.336 3.052-18.913 6.942-7.271-6.931-16.988-10.904-27.235-10.904-10.501 0-20.458 4.223-27.76 11.444-7.302-7.221-17.258-11.444-27.76-11.444-10.247 0-19.963 3.972-27.235 10.904-5.577-3.89-12.108-6.298-18.913-6.942 2.625-11.514 12.94-20.134 25.237-20.134zm-116.035 285.107c-6.848-15.644-10.43-32.591-10.43-41.247 0-5.634 1.582-11.124 4.508-15.866 2.907.685 5.933 1.058 9.047 1.058 2.723 0 5.429-.296 8.077-.848-.383 22.379-.004 44.98 1.143 67.341.182 3.555.586 7.084 1.188 10.571-3.965-3.464-8.742-10.063-13.533-21.009zm26.811 163.935c.152-1.747.325-3.727.517-7.481 1.527-29.849 20.38-55.307 48.259-65.496 6.873 2.05 14.013 3.283 21.295 3.63 22.645 1.067 45.464 1.608 67.823 1.608 19.271 0 38.879-.426 58.427-1.221-1.27 5.094-3.533 12.112-7.524 19.973-10.501 20.684-27.503 37.342-50.517 49.558h-138.33c.017-.188.033-.378.05-.571zm275.26-7.481c.192 3.754.365 5.734.517 7.481.017.193.034.382.05.571h-109.692c33.784-25.727 43.219-57.094 45.784-70.448 5.2-.603 10.26-1.635 15.137-3.082 27.848 10.206 46.678 35.65 48.204 65.478zm37.765-197.701c0 8.656-3.583 25.603-10.43 41.247-4.79 10.943-9.566 17.542-13.529 21.006.589-3.458 1.005-6.979 1.189-10.567 1.147-22.362 1.526-44.963 1.143-67.343 2.648.553 5.353.848 8.077.848 3.114 0 6.14-.374 9.047-1.058 2.922 4.746 4.503 10.236 4.503 15.867z"/><path d="m255.996 237.995c13.864 0 25.144-11.279 25.144-25.143s-11.279-25.144-25.144-25.144-25.144 11.279-25.144 25.144c.001 13.863 11.28 25.143 25.144 25.143zm0-35.287c5.593 0 10.144 4.55 10.144 10.144 0 5.593-4.55 10.143-10.144 10.143s-10.144-4.55-10.144-10.143c.001-5.594 4.551-10.144 10.144-10.144z"/><path d="m214.711 260.489c-3.742-1.777-8.216-.182-9.991 3.56-2.819 5.939-8.886 9.776-15.457 9.776s-12.638-3.837-15.457-9.776c-1.776-3.742-6.247-5.335-9.991-3.56-3.742 1.776-5.336 6.249-3.56 9.991 5.289 11.144 16.675 18.345 29.008 18.345s23.719-7.201 29.008-18.345c1.776-3.741.182-8.215-3.56-9.991z"/><path d="m322.73 288.825c12.333 0 23.719-7.201 29.008-18.345 1.776-3.742.183-8.215-3.56-9.991-3.743-1.777-8.215-.182-9.991 3.56-2.819 5.939-8.886 9.776-15.457 9.776s-12.638-3.837-15.457-9.776c-1.775-3.742-6.247-5.335-9.991-3.56-3.742 1.776-5.336 6.249-3.56 9.991 5.289 11.145 16.676 18.345 29.008 18.345z"/></g></g></svg>