<?xml version="1.0" encoding="iso-8859-1"?>
<!-- Generator: Adobe Illustrator 19.0.0, SVG Export Plug-In . SVG Version: 6.00 Build 0)  -->
<svg version="1.1" id="Capa_1" xmlns="http://www.w3.org/2000/svg" xmlns:xlink="http://www.w3.org/1999/xlink" x="0px" y="0px"
	 viewBox="0 0 512 512" style="enable-background:new 0 0 512 512;" xml:space="preserve">
<g>
	<path style="fill:#805333;" d="M291.31,406.069h39.071c3.144,0.01,6.046,1.691,7.618,4.414l51.5,88.276
		c1.575,2.729,1.577,6.09,0.004,8.82c-1.573,2.73-4.481,4.415-7.632,4.422H130.127c-3.151-0.006-6.059-1.691-7.632-4.422
		s-1.571-6.091,0.004-8.82l51.5-88.276c1.572-2.723,4.474-4.404,7.618-4.414H291.31z"/>
	<path style="fill:#CB8252;" d="M220.69,370.759v61.793c0,4.875,3.952,8.828,8.828,8.828h52.966c4.875,0,8.828-3.952,8.828-8.828
		V8.828c0-4.875-3.952-8.828-8.828-8.828h-52.966c-4.875,0-8.828,3.952-8.828,8.828V370.759z"/>
	<path style="fill:#F29C1F;" d="M17.655,35.31h476.69c9.751,0,17.655,7.904,17.655,17.655v300.138
		c0,9.751-7.905,17.655-17.655,17.655H17.655C7.904,370.759,0,362.854,0,353.103V52.966C0,43.215,7.904,35.31,17.655,35.31z"/>
	<g>
		<path style="fill:#F0C419;" d="M52.966,79.448H35.31c-4.875,0-8.828-3.952-8.828-8.828s3.952-8.828,8.828-8.828h17.655
			c4.875,0,8.828,3.952,8.828,8.828S57.841,79.448,52.966,79.448z"/>
		<path style="fill:#F0C419;" d="M247.172,79.448H88.276c-4.875,0-8.828-3.952-8.828-8.828s3.952-8.828,8.828-8.828h158.897
			c4.875,0,8.828,3.952,8.828,8.828S252.048,79.448,247.172,79.448z"/>
		<path style="fill:#F0C419;" d="M476.69,326.621h-17.655c-4.875,0-8.828,3.952-8.828,8.828s3.952,8.828,8.828,8.828h17.655
			c4.875,0,8.828-3.952,8.828-8.828S481.565,326.621,476.69,326.621z"/>
		<path style="fill:#F0C419;" d="M423.724,326.621H264.828c-4.875,0-8.828,3.952-8.828,8.828s3.952,8.828,8.828,8.828h158.897
			c4.875,0,8.828-3.952,8.828-8.828S428.599,326.621,423.724,326.621z"/>
	</g>
	<g>
		<path style="fill:#ECF0F1;" d="M114.759,167.724c4.875,0,8.828-3.952,8.828-8.828s-3.952-8.828-8.828-8.828h-35.31
			c-9.751,0-17.655,7.904-17.655,17.655v70.621c0,9.751,7.904,17.655,17.655,17.655h35.31c4.875,0,8.828-3.952,8.828-8.828
			s-3.952-8.828-8.828-8.828h-35.31v-26.483h26.483c4.875,0,8.828-3.952,8.828-8.828s-3.952-8.828-8.828-8.828H79.448v-26.483
			H114.759z"/>
		<path style="fill:#ECF0F1;" d="M185.379,176.552h-35.31c-4.875,0-8.828,3.952-8.828,8.828c0,4.875,3.952,8.828,8.828,8.828h35.31
			c4.875,0,8.828-3.952,8.828-8.828C194.207,180.504,190.255,176.552,185.379,176.552z"/>
		<path style="fill:#ECF0F1;" d="M185.379,211.862h-35.31c-4.875,0-8.828,3.952-8.828,8.828s3.952,8.828,8.828,8.828h35.31
			c4.875,0,8.828-3.952,8.828-8.828S190.255,211.862,185.379,211.862z"/>
		<path style="fill:#ECF0F1;" d="M293.959,150.475c-3.676-1.158-7.679,0.204-9.887,3.363l-23.658,33.801l-23.667-33.801
			c-2.21-3.154-6.209-4.512-9.882-3.355s-6.172,4.562-6.175,8.413v88.276c0,4.875,3.952,8.828,8.828,8.828s8.828-3.952,8.828-8.828
			v-60.275l14.839,21.186c1.732,2.236,4.401,3.545,7.23,3.545s5.498-1.309,7.23-3.545l14.839-21.186v60.275
			c0,4.875,3.952,8.828,8.828,8.828s8.828-3.952,8.828-8.828v-88.276C300.138,155.041,297.636,151.632,293.959,150.475z"/>
		<path style="fill:#ECF0F1;" d="M383.258,155.26c-3.308-3.328-7.808-5.196-12.5-5.191h-35.31c-2.364,0.002-4.705,0.473-6.885,1.386
			c-4.221,1.802-7.581,5.168-9.375,9.393c-0.925,2.174-1.399,4.514-1.395,6.877v70.621c0,9.751,7.905,17.655,17.655,17.655h35.31
			c2.364-0.002,4.705-0.473,6.886-1.386c4.221-1.802,7.581-5.168,9.375-9.393c0.925-2.174,1.399-4.514,1.395-6.877v-8.828
			c0-4.875-3.952-8.828-8.828-8.828s-8.828,3.952-8.828,8.828v8.828h-35.31v-70.621h35.31v8.828c0,4.875,3.952,8.828,8.828,8.828
			s8.828-3.952,8.828-8.828v-8.828C388.413,163.051,386.559,158.568,383.258,155.26z"/>
		<path style="fill:#ECF0F1;" d="M450.207,185.379h-18.158l17.276-24.117c5.967-8.387,5.876-19.658-0.227-27.948
			c-6.103-8.29-16.838-11.725-26.619-8.518c-9.781,3.207-16.399,12.331-16.41,22.624v2.648c0,4.875,3.952,8.828,8.828,8.828
			s8.828-3.952,8.828-8.828v-2.648c0-3.413,2.767-6.179,6.179-6.179c2.306,0.01,4.415,1.303,5.47,3.354
			c1.054,2.051,0.879,4.519-0.456,6.4l-27.198,38.082c-1.92,2.69-2.177,6.227-0.666,9.166c1.511,2.939,4.538,4.788,7.842,4.791
			h35.31c4.875,0,8.828-3.952,8.828-8.828S455.082,185.379,450.207,185.379z"/>
	</g>
</g>
<g>
</g>
<g>
</g>
<g>
</g>
<g>
</g>
<g>
</g>
<g>
</g>
<g>
</g>
<g>
</g>
<g>
</g>
<g>
</g>
<g>
</g>
<g>
</g>
<g>
</g>
<g>
</g>
<g>
</g>
</svg>
