<svg id="Layer_1" enable-background="new 0 0 512 512" height="512" viewBox="0 0 512 512" width="512" xmlns="http://www.w3.org/2000/svg"><g><g><path d="m135.5 451.75h-60.25c-8.284 0-15-6.716-15-15v-383.895c0-8.284 6.716-15 15-15h60.25c8.284 0 15 6.716 15 15v383.895c0 8.284-6.716 15-15 15z" fill="#23272b"/></g><g><path d="m436.75 451.75h-60.25c-8.284 0-15-6.716-15-15v-383.895c0-8.284 6.716-15 15-15h60.25c8.284 0 15 6.716 15 15v383.895c0 8.284-6.716 15-15 15z" fill="#0b0c0d"/></g><g><path d="m302.5 170.625h-93c-8.284 0-15-6.716-15-15v-77.362c0-8.284 6.716-15 15-15h93c8.284 0 15 6.716 15 15v77.362c0 8.284-6.716 15-15 15z" fill="#23272b"/></g><path d="m302.5 63.263h-46.5v107.362h46.5c8.284 0 15-6.716 15-15v-77.362c0-8.284-6.716-15-15-15z" fill="#0b0c0d"/><g><path d="m455 180.625h-398c-8.284 0-15-6.716-15-15s6.716-15 15-15h398c8.284 0 15 6.716 15 15s-6.716 15-15 15z" fill="#fe8205"/></g><path d="m455 150.625h-199v30h199c8.284 0 15-6.716 15-15s-6.716-15-15-15z" fill="#ff432e"/><g><path d="m165.625 512h-120.5c-8.284 0-15-6.716-15-15v-34.814c0-22.296 18.139-40.436 40.436-40.436h69.629c22.296 0 40.436 18.139 40.436 40.436v34.814c-.001 8.284-6.717 15-15.001 15z" fill="#fe8205"/></g><g><g><path d="m466.875 512h-120.5c-8.284 0-15-6.716-15-15v-34.814c0-22.296 18.139-40.436 40.436-40.436h69.629c22.296 0 40.436 18.139 40.436 40.436v34.814c-.001 8.284-6.717 15-15.001 15z" fill="#ff432e"/></g></g><path d="m509.924 7.387c-2.923-4.961-8.432-7.809-14.165-7.336l-179.488 14.896c-39.993 3.319-80.55 3.319-120.542 0l-179.488-14.896c-5.736-.471-11.243 2.375-14.165 7.336s-2.747 11.157.452 15.945l25.994 38.91c11.585 17.342 30.141 28.385 50.91 30.297l93.262 8.584c27.639 3.053 55.474 4.58 83.307 4.58s55.668-1.527 83.307-4.58l93.262-8.584c20.769-1.912 39.324-12.955 50.91-30.297l25.994-38.91c3.197-4.788 3.373-10.984.45-15.945z" fill="#fe8205"/><path d="m495.759.051-179.488 14.896c-19.997 1.66-40.134 2.49-60.271 2.49v88.267c27.833 0 55.668-1.527 83.307-4.58l93.262-8.584c20.769-1.912 39.324-12.955 50.91-30.297l25.994-38.91c3.199-4.788 3.374-10.984.452-15.945-2.924-4.962-8.433-7.81-14.166-7.337z" fill="#ff432e"/></g></svg>